<svg width="96" height="88" viewBox="0 0 96 88" fill="none" xmlns="http://www.w3.org/2000/svg"><path fill="#fff" d="M0 0h96v88H0z"/><path d="M85.338 21.652L49.01 4.116a1.173 1.173 0 0 0-1.02 0L11.663 21.652A1.172 1.172 0 0 0 11 22.707v42.586c0 .45.257.86.662 1.055L47.99 83.883a1.172 1.172 0 0 0 1.02 0l36.328-17.535A1.17 1.17 0 0 0 86 65.293V22.707c0-.45-.258-.86-.662-1.055zM48.5 6.473l33.632 16.234-9.75 4.706a1.17 1.17 0 0 0-.198-.125L38.781 11.165 48.5 6.473zM36.134 12.49L69.717 28.7l-6.878 3.32-33.57-16.204 6.865-3.326zm34.369 18.433v12.273l-6.425 3.101V34.024l6.425-3.101zm13.153 33.635L49.672 80.96V40.978l8.106-3.913a1.172 1.172 0 1 0-1.019-2.11L48.5 38.94l-3.25-1.569a1.172 1.172 0 1 0-1.019 2.111l3.097 1.495V80.96L13.344 64.557V24.574l25.879 12.491a1.172 1.172 0 0 0 1.02-2.11L14.867 22.707l11.643-5.62 35.207 16.994.016.02v14.063a1.172 1.172 0 0 0 1.682 1.056l8.768-4.233c.406-.196.663-.606.663-1.055v-14.14l10.809-5.218v39.983z" fill="#27AE60"/><path d="M23.016 60.012l-5.33-2.573a1.172 1.172 0 1 0-1.02 2.11l5.331 2.574a1.172 1.172 0 0 0 1.02-2.11zm4.907-3.192l-10.23-4.939a1.172 1.172 0 1 0-1.02 2.11l10.23 4.939a1.169 1.169 0 0 0 1.566-.546 1.172 1.172 0 0 0-.546-1.565z" fill="#27AE60"/></svg>