<svg width="32" height="24" viewBox="0 0 32 24" fill="none" xmlns="http://www.w3.org/2000/svg"><path fill-rule="evenodd" clip-rule="evenodd" d="M16.49 3.052c.552 5.418-2.618 7.678-3.517 8.203.008.056.012.116.012.176v7.729l1.477.817h7.77c.015 0 .034 0 .049.003 1.79.246 1.86-1.879 1.86-2.144a.325.325 0 0 1 .193-.324c1.12-.485.646-2.006.601-2.137a.323.323 0 0 1 .16-.402c1.455-.709.538-1.984.42-2.144a.326.326 0 0 1-.034-.392c2.636-4.06-5.599-3.057-6.126-2.99a.305.305 0 0 1-.13 0 .32.32 0 0 1-.252-.377c1.229-6.253-1.604-6.185-2.491-6.025l.007.007zm-4.033 16.201v-7.822a.657.657 0 0 0-.196-.474.664.664 0 0 0-.472-.198H7.67a.651.651 0 0 0-.472.198.67.67 0 0 0-.197.474v7.822c0 .187.074.354.197.474.122.123.29.197.471.197h4.121a.677.677 0 0 0 .66-.574c.001-.022.001-.048.008-.07v-.027z" fill="#111"/></svg>