<svg width="32" height="24" viewBox="0 0 32 24" fill="none" xmlns="http://www.w3.org/2000/svg"><path d="M11.315 20.241c.767.323 1.482.63 2.022.619h.018l.017.004c.037.009 3.806.874 6.451-1.874.946-.983 3.11-2.428 3.564-2.729-.217-.796-.365-.95-.372-.956l-.026-.031a.261.261 0 0 0-.205-.125c-.84-.113-3.105 1.792-3.908 2.535l-.071-.073a.489.489 0 0 1-.053.198c-.393.782-3.104 1.312-3.77 1.178-.346-.07-.664-.224-.973-.373-.4-.193-.777-.375-1.156-.341l-.025-.269c.455-.04.887.168 1.305.37.292.14.594.286.905.35.626.126 3.156-.416 3.466-1.033.04-.078.06-.19-.137-.352-.55-.455-1.177-.521-1.903-.598-.7-.074-1.492-.158-2.34-.624-1.886-1.038-3.649-1.594-4.6-1.452-.618.093-2.102.907-3.223 1.565l1.405 3.183c1.212-.177 2.503.362 3.61.828zm-.653-2.276a7.647 7.647 0 0 1 1.057.006.136.136 0 0 1 .125.147.137.137 0 0 1-.138.122h-.013a7.323 7.323 0 0 0-1.014-.006c-.085.004-.142-.052-.147-.126a.136.136 0 0 1 .13-.143zm-3.756 1.683l-1.321-2.992c-.265.161-.472.29-.585.36l1.263 3.038c.208-.172.423-.304.643-.406zM25.094 4.352l1.321 2.991c.265-.16.472-.289.585-.359l-1.263-3.038a2.963 2.963 0 0 1-.643.406zM13.633 6.66c.55.456 1.177.522 1.903.599.7.074 1.492.158 2.34.624 1.886 1.038 3.647 1.595 4.6 1.452.618-.093 2.102-.907 3.223-1.565l-1.405-3.183c-1.212.178-2.503-.362-3.609-.828-.766-.323-1.49-.63-2.022-.619h-.017l-.018-.004c-.038-.01-3.806-.874-6.451 1.874-.947.983-3.11 2.428-3.564 2.729.217.796.365.95.372.956l.027.031c.044.073.11.112.204.125.835.107 3.105-1.792 3.908-2.535l.071.073a.487.487 0 0 1 .053-.198c.393-.783 3.107-1.311 3.77-1.177.347.07.664.223.972.372.4.193.78.375 1.157.342l.025.268c-.457.04-.888-.168-1.305-.37-.292-.14-.594-.286-.905-.349a1.253 1.253 0 0 0-.236-.018c-.866 0-2.95.494-3.23 1.05-.04.078-.06.19.137.352z" fill="#000"/><path d="M20.307 5.76c.004.001.435.04 1.014.006.076-.002.142.052.147.126a.136.136 0 0 1-.13.143 8.599 8.599 0 0 1-1.058-.006.136.136 0 0 1-.125-.147.138.138 0 0 1 .152-.121zm.81 4.726c-4.697.37-5.173 4.967-5.173 4.967 5.237.863 5.173-4.967 5.173-4.967zm-9.404 1.341c3.451.272 3.866 3.649 3.866 3.649-3.846.634-3.866-3.65-3.866-3.65z" fill="#000"/><path d="M15.104 8.674c2.243 2.564.745 5.238.745 5.238-3.182-2.196-.745-5.238-.745-5.238z" fill="#000"/></svg>