<svg width="32" height="24" viewBox="0 0 32 24" fill="none" xmlns="http://www.w3.org/2000/svg"><g clip-path="url(#a)" fill="#000"><path d="M12.857 2c-.24.012-.449.249-.438.498.012.25.24.465.48.454h.696v6.423l-1.233 2.878 5.556.037-1.111-2.885V2.952h.68c.243.003.466-.225.466-.476 0-.252-.223-.48-.465-.476h-4.631zm5.047 3.346c-.24.011-.449.249-.438.498.012.249.24.465.48.453h.689v1.428h3.211V6.297h.689c.242.004.465-.224.465-.475 0-.252-.223-.48-.465-.476h-4.631zm.73 3.33v11.428c0 1.197.69 1.91 1.614 1.896.91.015 1.598-.7 1.598-1.889V8.677h-1.383c-.026.18-.141.197-.23.252a.234.234 0 0 1-.229-.238c-.42-.032-.923-.014-1.37-.014zm2.288 1.205c.126 0 .23.106.23.238a.234.234 0 0 1-.23.238.234.234 0 0 1-.23-.238c0-.132.103-.238.23-.238zm-.688 1.19c.126 0 .229.106.229.237a.234.234 0 0 1-.23.238.234.234 0 0 1-.229-.238c0-.13.103-.237.23-.237zm.688 1.427c.126 0 .23.107.23.238a.234.234 0 0 1-.23.238.234.234 0 0 1-.23-.238c0-.131.103-.238.23-.238zm-8.968.699L9 20.089c0 .721.462 1.432 1.814 1.472 2.503-.036 5.329-.04 7.728-.022-.242-.393-.366-.883-.366-1.435v-6.862l-3.505-.045c.039.07.064.15.064.238a.468.468 0 0 1-.459.476.468.468 0 0 1-.459-.476.49.49 0 0 1 .065-.238h-1.928zm4.387.238c.253 0 .459.213.459.476a.468.468 0 0 1-.46.476.468.468 0 0 1-.458-.476c0-.263.205-.476.459-.476zm-3.212.951c.127 0 .23.107.23.238a.234.234 0 0 1-.23.238.234.234 0 0 1-.23-.238c0-.131.104-.238.23-.238zm2.524.476c.126 0 .229.107.229.238a.234.234 0 0 1-.23.238.234.234 0 0 1-.229-.238c0-.131.103-.238.23-.238zm1.605.952c.127 0 .23.107.23.238a.234.234 0 0 1-.23.238.234.234 0 0 1-.229-.238c0-.131.103-.238.23-.238zm-3.67.238c.127 0 .23.106.23.238a.234.234 0 0 1-.23.238.234.234 0 0 1-.23-.238c0-.132.103-.238.23-.238zm1.835 1.19c.127 0 .23.106.23.237a.234.234 0 0 1-.23.238.234.234 0 0 1-.23-.238c0-.131.104-.237.23-.237zm-2.982.951c.127 0 .23.107.23.238a.234.234 0 0 1-.23.238.234.234 0 0 1-.23-.238c0-.131.103-.238.23-.238zm4.588.238c.127 0 .23.107.23.238a.234.234 0 0 1-.23.238.234.234 0 0 1-.23-.238c0-.131.103-.238.23-.238z"/><path d="M16 0C9.393 0 4.01 5.38 4 11.995c-.005 3.264 1.284 6.43 3.536 8.685a11.237 11.237 0 0 0 8.488 3.31C22.739 23.715 28 18.446 28 11.995 28 5.381 22.617 0 16 0zm0 1.157c2.635 0 5.053.945 6.934 2.513L7.642 19.071c-1.593-1.956-2.488-4.48-2.485-7.075C5.167 6.02 10.031 1.156 16 1.156zm-.024 21.677a10.076 10.076 0 0 1-7.553-2.907L23.782 4.459a10.797 10.797 0 0 1 3.06 7.536c0 5.828-4.772 10.59-10.866 10.84z"/></g><defs><clipPath id="a"><path fill="#fff" d="M0 0h32v24H0z"/></clipPath></defs></svg>