<svg width="91" height="89" viewBox="0 0 91 89" fill="none" xmlns="http://www.w3.org/2000/svg"><path d="M74.2 83.4c-1.7 2.1-4.7 3.2-8.9 3.2s-7.1-1.1-8.9-3.2c-2.4-3-1.6-7.1-1.6-7.1L57.1 62c.5 0 1.1.1 1.7.1 2.8.1 4.9.2 5.9.2h1c1.1 0 4.1 0 7.6-.3l2.3 14.2v.1c.2.1 1 4.1-1.4 7.1z" fill="#818181"/><path d="M54.7 84.8c.1 0 .1 0 0 0-3 2.4-7.3 3.5-12.9 3.5-3.5 0-6.5-.5-9-1.4-2.5-.9-4.5-2.3-5.9-4-4.1-5-2.7-12-2.7-12l4-23.7c4.4.3 8.3.4 10.7.4-1.3 3.2-1.6 6.2-.9 8.3.7 2 3.1 3.4 7.2 4.5 2.6.7 5.9 1.2 9.8 1.5l-2.3 14c-.1.4-.9 5.2 2 8.9z" fill="#818181"/><path d="M65.3 60.1s-2.7 0-6.3-.1c-.9 0-1.8-.1-2.6-.2-13.9-1-16-3.8-16.3-4.6-.7-1.8-.1-5 1.5-8.1C45 40.3 53 33 65.3 33c8.6 0 14.4 3.5 17.7 6.4 6.5 5.7 8.6 13 7.5 15.9-.3.8-2.4 3.6-16.3 4.6-4.7.2-8.8.2-8.9.2z" fill="#818181"/><path d="M83.4 36.7c-3.7-2.9-9.7-6-18.1-6-13 0-21.6 7.5-25.4 14.7-2.3 0-7.1-.1-12.6-.5C11.6 43.8 1.8 40.9.4 37c-1.2-3.6.2-11.2 5.5-18.8C9.7 12.7 20.8 0 41.9 0s32.2 12.7 36 18.2c5.2 7.4 6.7 14.8 5.5 18.5z" fill="#818181"/></svg>