<svg width="96" height="88" viewBox="0 0 96 88" fill="none" xmlns="http://www.w3.org/2000/svg"><path fill="#fff" d="M0 0h96v88H0z"/><path d="M69.145 27.61c-1.618-3.77-4.93-6.547-8.933-7.525l-2.316-5.392-3.45 1.45L51.808 10l-7.59 3.189 2.638 6.142-3.45 1.45 2.316 5.392a12.85 12.85 0 0 0-.727 11.584L61.85 77 86 66.853 69.145 27.61zM50.617 12.917l1.759 4.095-1.725.725-1.725.725-1.759-4.095 3.45-1.45zm-3.552 23.97a10.65 10.65 0 0 1 .683-9.733l4.096-1.687-.865-2.054-3.398 1.4-1.226-2.854 5.175-2.175 3.795-1.594 1.38-.58 1.895 4.41.583.115c3.535.697 6.486 3.068 7.893 6.343L83.05 65.675l-20.01 8.408-15.975-37.196zM18.341 14.218h-2.249v2.225h2.25v-2.225zm8.997 0H25.09v2.225h2.25v-2.225zm-13.495 0h-2.249v2.225h2.25v-2.225zm26.99 0h-2.25v2.225h2.25v-2.225zm-17.993 0h-2.25v2.225h2.25v-2.225zm13.494 0h-2.249v2.225h2.25v-2.225zm-4.498 0h-2.249v2.225h2.25v-2.225zm-5.758 21.496l-1.675 1.484 1.5 1.658 1.676-1.484-1.5-1.658zm13.405-11.871l-1.675 1.484 1.5 1.657 1.676-1.484-1.5-1.657zm-6.701 5.936l-1.676 1.484 1.5 1.657 1.676-1.484-1.5-1.657zm-3.352 2.968l-1.676 1.484 1.5 1.658 1.676-1.484-1.5-1.658zm6.702-5.935l-1.676 1.483 1.5 1.658 1.676-1.484-1.5-1.657zM22.728 38.684l-1.676 1.484 1.5 1.657 1.676-1.483-1.5-1.658zm-3.351 2.966l-1.675 1.484 1.5 1.658 1.675-1.484-1.5-1.658zm-6.701 5.936L11 49.07l1.5 1.658 1.676-1.484-1.5-1.658zm3.35-2.967l-1.676 1.484 1.5 1.657 1.676-1.483-1.5-1.658zm2.561-18.693l-2.128.72.727 2.105 2.128-.72-.727-2.105zm-4.256 1.439l-2.128.72.728 2.105 2.128-.72-.728-2.105zm8.513-2.879l-2.128.72.728 2.105 2.128-.72-.728-2.105zm4.256-1.439l-2.128.72.728 2.104 2.128-.72-.728-2.104zm4.258-1.44l-2.129.72.728 2.105 2.128-.72-.727-2.105zm8.512-2.88l-2.128.72.728 2.105 2.128-.72-.728-2.105zm-4.257 1.44l-2.128.72.728 2.105 2.128-.72-.728-2.105z" fill="#27AE60"/><path d="M55.097 21.718l-2.038.84.864 2.053 2.039-.84-.865-2.053zm5.024 20.73l-2.07.87.88 2.047 2.07-.87-.88-2.047zM67.85 39.2l-2.07.87.88 2.047 2.07-.87-.88-2.047zm-11.593 4.87l-2.07.87.88 2.048 2.07-.87-.88-2.047zm7.724-3.25l-2.07.87.88 2.048 2.07-.87-.88-2.047zm1.804 4.082l-2.07.87.88 2.048 2.07-.87-.88-2.048zm-7.729 3.251l-2.07.87.88 2.048 2.07-.87-.88-2.048zm11.593-4.871l-2.07.87.879 2.048 2.07-.87-.88-2.048zM61.92 46.53l-2.07.87.88 2.047 2.07-.87-.88-2.047zm9.378.894l-2.07.87.88 2.047 2.07-.87-.88-2.047zm-7.728 3.244l-2.07.87.88 2.048 2.07-.87-.88-2.048zm-3.864 1.624l-2.07.87.88 2.047 2.07-.87-.88-2.047zm7.727-3.243l-2.07.87.879 2.047 2.07-.87-.88-2.047z" fill="#27AE60"/></svg>