<svg width="144" height="136" viewBox="0 0 144 136" fill="none" xmlns="http://www.w3.org/2000/svg"><path d="M72 113.85c2.811 0 5.09-2.287 5.09-5.107 0-2.82-2.279-5.107-5.09-5.107-2.81 0-5.09 2.286-5.09 5.107 0 2.82 2.28 5.106 5.09 5.106zm-4.526-61.99v39.177A4.53 4.53 0 0 0 72 95.576a4.53 4.53 0 0 0 4.526-4.539V51.86A4.533 4.533 0 0 0 72 47.32a4.531 4.531 0 0 0-4.526 4.54z" fill="#F2C94C"/><path d="M143.471 129.323L75.993 2.221c-1.572-2.961-6.416-2.961-7.986 0L.53 129.323a4.549 4.549 0 0 0 .115 4.47A4.519 4.519 0 0 0 4.526 136h134.948c1.59 0 3.061-.835 3.882-2.207a4.563 4.563 0 0 0 .115-4.47zm-131.407-2.404L72 14.011l59.94 112.909H12.064z" fill="#F2C94C"/></svg>