<svg width="96" height="88" viewBox="0 0 96 88" fill="none" xmlns="http://www.w3.org/2000/svg">
<rect width="96" height="88" fill="white"/>
<path d="M74.3376 17.6518L38.0096 0.116484C37.6875 -0.0388281 37.3125 -0.0388281 36.9906 0.116484L0.662432 17.6518C0.257378 17.8472 -6.43816e-08 18.2574 -6.43816e-08 18.7071V61.2928C-6.43816e-08 61.7425 0.257378 62.1527 0.662432 62.3481L36.9904 79.8834C37.1514 79.9611 37.3258 80 37.5 80C37.6742 80 37.8485 79.9611 38.0096 79.8834L74.3376 62.3481C74.7426 62.1527 75 61.7425 75 61.2928V18.7072C75 18.2572 74.7425 17.8474 74.3376 17.6518ZM37.5 2.4732L71.1321 18.7071L61.3829 23.413C61.3211 23.366 61.256 23.3226 61.1844 23.288L27.7807 7.1646L37.5 2.4732ZM25.1338 8.4896L58.717 24.6999L51.8388 28.0201L18.2695 11.8163L25.1338 8.4896ZM59.5028 26.923V39.1958L53.078 42.2971V30.0243L59.5028 26.923ZM72.6559 60.5575L38.672 76.9609V36.9779L46.7783 33.065C47.3612 32.7836 47.6056 32.0832 47.3241 31.5002C47.0427 30.9175 46.3421 30.6729 45.7591 30.9544L37.5 34.9411L34.2502 33.3724C33.6671 33.0907 32.9666 33.3354 32.6851 33.9182C32.4037 34.501 32.6481 35.2016 33.231 35.483L36.328 36.9779V76.9609L2.34406 60.5572V20.5741L28.2225 33.0655C28.3868 33.1449 28.5604 33.1824 28.7312 33.1824C29.1669 33.1824 29.5854 32.9383 29.7874 32.5197C30.0689 31.9369 29.8244 31.2363 29.2416 30.9549L3.86786 18.7071L15.5108 13.0871L50.7177 30.0813C50.7229 30.0885 50.7286 30.0949 50.734 30.1019V44.1643C50.734 44.5675 50.9413 44.9424 51.2829 45.1569C51.4726 45.276 51.6891 45.3361 51.9061 45.3361C52.0799 45.3361 52.2542 45.2975 52.4156 45.2196L61.1844 40.9869C61.5895 40.7914 61.8468 40.3814 61.8468 39.9316V25.7918L72.6559 20.5743V60.5575Z" transform="translate(11 4)" fill="#27AE60"/>
<path d="M7.01308 2.69025L1.6819 0.116972C1.0987 -0.164746 0.398294 0.0799379 0.11685 0.66275C-0.164594 1.24556 0.079814 1.94619 0.662704 2.22759L5.99388 4.80087C6.15812 4.88025 6.33174 4.91775 6.50254 4.91775C6.93823 4.91775 7.35672 4.67368 7.55878 4.25509C7.84038 3.67212 7.59597 2.97181 7.01308 2.69025Z" transform="translate(16.0032 57.3221)" fill="#27AE60"/>
<path d="M11.9121 5.05495L1.6818 0.116829C1.09876 -0.164577 0.398195 0.0798007 0.116751 0.662769C-0.164536 1.24558 0.079872 1.9462 0.662762 2.22761L10.893 7.16573C11.0573 7.24495 11.2309 7.28261 11.4017 7.28261C11.8374 7.28261 12.2559 7.03855 12.4579 6.61995C12.7394 6.03683 12.495 5.3362 11.9121 5.05495Z" transform="translate(16.0107 51.7642)" fill="#27AE60"/>
</svg>
