<svg width="32" height="24" viewBox="0 0 32 24" fill="none" xmlns="http://www.w3.org/2000/svg">
<path fill-rule="evenodd" clip-rule="evenodd" d="M3.51576 0.0523424C4.06893 5.47001 0.898431 7.72954 0 8.25527C0.00742505 8.3112 0.0111376 8.37086 0.0111376 8.43052V16.1599L1.48872 16.9765H9.25904C9.27389 16.9765 9.29245 16.9765 9.3073 16.9802C11.0967 17.2263 11.1673 15.101 11.1673 14.8363C11.1561 14.702 11.2304 14.5678 11.3603 14.5119C12.4815 14.0272 12.0063 12.5059 11.9618 12.3754C11.9024 12.2225 11.9729 12.0473 12.1214 11.9727C13.5767 11.2643 12.6597 9.98908 12.5409 9.82874C12.4444 9.72434 12.4295 9.56401 12.5075 9.43724C15.1434 5.37679 6.90901 6.37979 6.38183 6.4469C6.34099 6.45436 6.29644 6.45809 6.25189 6.4469C6.0774 6.41334 5.96603 6.24556 5.99944 6.07031C7.22829 -0.18256 4.39563 -0.115445 3.50834 0.0448852L3.51576 0.0523424Z" transform="translate(12.9734 3)" fill="#111111"/>
<path fill-rule="evenodd" clip-rule="evenodd" d="M5.45741 8.49376V0.671149C5.45741 0.484719 5.38316 0.316931 5.26065 0.197616C5.13813 0.0745721 4.97107 0 4.78916 0H0.668254C0.482628 0 0.315565 0.0745721 0.196764 0.197616C0.0742505 0.32066 0 0.488447 0 0.671149V8.49376C0 8.68019 0.0742505 8.84798 0.196764 8.9673C0.319277 9.09034 0.486341 9.16491 0.668254 9.16491H4.78916C4.97478 9.16491 5.14185 9.09034 5.26065 8.9673C5.36089 8.86662 5.42771 8.73612 5.44999 8.59071C5.44999 8.56833 5.44999 8.54223 5.45741 8.51986C5.45741 8.51241 5.45741 8.50122 5.45741 8.49376Z" transform="translate(7 10.7594)" fill="#111111"/>
</svg>
