<svg width="32" height="24" viewBox="0 0 32 24" fill="none" xmlns="http://www.w3.org/2000/svg">
<path d="M0.258982 4.33396C0.587932 4.75443 1.11332 5.00574 1.66521 5.00574C2.04677 5.00574 2.40924 4.89036 2.71364 4.67191L2.76353 4.62896C2.87032 4.52067 3.04805 4.37728 3.19693 4.26562C3.48535 4.6663 3.64242 5.03823 3.61748 5.2705C3.60773 5.34107 3.57148 5.70889 3.82015 5.98037C3.92382 6.09351 4.11402 6.22869 4.43128 6.22869C4.47376 6.22869 4.51975 6.22608 4.56925 6.22048C4.66864 6.20927 4.7653 6.17156 4.85065 6.11144L5.97937 5.30112C6.06395 5.24062 6.12943 5.16109 6.16801 5.07258C6.31495 4.74211 6.24479 4.49901 6.15983 4.353C5.96612 4.01842 5.56273 3.94262 5.49491 3.93291C5.24586 3.88922 4.91691 3.64015 4.59653 3.26262C4.73996 3.16516 4.91652 3.05388 5.04709 2.9904L5.10399 2.95642C5.47776 2.6883 5.72019 2.29509 5.78723 1.85035C5.85387 1.40523 5.73656 0.962728 5.44112 0.585947C4.88651 -0.038037 4.11129 -0.169481 3.08819 0.219623C2.09121 0.609473 1.20998 1.24167 0.521285 2.07141C-0.0563277 2.88845 -0.154545 3.63604 0.22975 4.29251L0.258982 4.33396Z" transform="translate(8.61557 3)" fill="black"/>
<path d="M1.09154 3.32082L1.15507 3.34285C1.33162 3.38766 1.58769 3.48587 1.78335 3.5684C1.52299 4.07027 1.22288 4.4198 0.95941 4.52473C0.911081 4.54265 0.484692 4.70845 0.359582 5.10091C0.306576 5.26783 0.290596 5.53147 0.515872 5.83767C0.575504 5.92094 0.660081 5.98816 0.759467 6.03222L2.15478 6.64836C2.23546 6.68459 2.32432 6.70326 2.41163 6.70326L2.46619 6.70102C2.85867 6.66554 3.05784 6.48257 3.15605 6.33544C3.38601 5.98965 3.24102 5.57105 3.22738 5.53445C3.13812 5.27045 3.22153 4.81599 3.4472 4.30478C3.62804 4.38955 3.85215 4.50307 3.99168 4.5953L4.05014 4.62742C4.29725 4.73645 4.55994 4.79172 4.83121 4.79172C5.56433 4.79172 6.23548 4.38133 6.55001 3.72523C6.88169 2.90408 6.59834 2.12625 5.70581 1.41115C4.80276 0.701656 3.71769 0.221811 2.53869 0.0212849C2.3898 0.00709498 2.2491 -1.03275e-08 2.1158 -1.03275e-08C1.23185 -1.03275e-08 0.586028 0.299856 0.196666 0.890979L0.172111 0.933923C-0.260904 1.83536 0.151455 2.90558 1.09154 3.32082Z" transform="translate(15.0464 3.27228)" fill="black"/>
<path d="M4.90086 3.35103L4.93438 3.3514L4.96751 3.34617C5.92201 3.19681 6.57134 2.33122 6.41076 1.39394C6.22017 0.592577 5.57864 0.132524 4.50176 0.0260992C3.42253 -0.0691228 2.35344 0.0955554 1.3319 0.530963C0.424949 0.999231 -0.0228755 1.61836 0.000899346 2.37117L0.00596557 2.42009C0.158359 3.31145 1.05791 3.95559 2.01942 3.80772L2.08451 3.79166C2.23184 3.74275 2.45868 3.69457 2.6442 3.66134C2.70656 4.14454 2.66641 4.54373 2.53195 4.73866C2.48635 4.80139 2.26341 5.13224 2.37995 5.49782C2.431 5.65764 2.56586 5.87497 2.91702 6.00305C2.98172 6.02658 3.05071 6.03853 3.12086 6.03853L4.60855 5.81336C4.71222 5.79767 4.80849 5.75697 4.88917 5.69386C5.17875 5.46645 5.2341 5.21925 5.22942 5.05233C5.21929 4.66995 4.89774 4.42386 4.8424 4.38503C4.64285 4.23603 4.47135 3.86933 4.36963 3.3936C4.54073 3.37119 4.7473 3.35103 4.90086 3.35103C4.90047 3.35103 4.90047 3.35103 4.90086 3.35103Z" transform="translate(18.5648 8.48154)" fill="black"/>
<path d="M5.52396 3.8036C5.27257 3.78194 4.92101 3.56349 4.56556 3.21621C4.70236 3.10419 4.86957 2.97573 4.98766 2.90478L5.04106 2.86595C5.38755 2.56572 5.591 2.15309 5.61477 1.70424C5.63855 1.25501 5.47875 0.824833 5.14902 0.476059C4.53711 -0.0956469 3.74708 -0.158007 2.77036 0.319223C1.81625 0.79496 0.999329 1.50259 0.392875 2.38983C-0.104059 3.25505 -0.129783 4.00824 0.316873 4.62774L0.348443 4.6662C0.679343 5.01647 1.15367 5.21812 1.65022 5.21812C2.08635 5.21812 2.50338 5.06464 2.82571 4.78607L2.87131 4.73864C2.96719 4.62139 3.1301 4.46343 3.26769 4.33871C3.59352 4.71251 3.78567 5.06875 3.78333 5.30251C3.7806 5.3701 3.77943 5.71962 4.02887 5.96794C4.17386 6.11246 4.36913 6.18863 4.59323 6.18863C4.59362 6.18863 4.59362 6.18863 4.59362 6.18863C4.66612 6.18863 4.7429 6.18079 4.82241 6.16436C4.92218 6.14345 5.01572 6.09715 5.09173 6.03068L6.13899 5.12327C6.21577 5.05605 6.27306 4.97278 6.30463 4.87942C6.41883 4.53774 6.32568 4.30174 6.22746 4.16395C6.0018 3.84729 5.59256 3.80771 5.52396 3.8036Z" transform="translate(7.85263 14.8114)" fill="black"/>
<path d="M5.99516 4.3348L6.02283 4.29372C6.40712 3.63725 6.30891 2.88966 5.71336 2.0491C5.04221 1.24288 4.16137 0.61031 3.16088 0.21934C2.1483 -0.165656 1.37581 -0.0480285 0.795864 0.605456C0.516022 0.963565 0.398706 1.40607 0.465353 1.85118C0.532391 2.2963 0.774816 2.68914 1.14859 2.95725L1.20549 2.99123C1.32943 3.05173 1.50911 3.1645 1.65605 3.26383C1.33684 3.64098 1.00906 3.88968 0.768971 3.93188C0.690241 3.94345 0.286847 4.01889 0.0927505 4.35384C0.00817434 4.49985 -0.0615911 4.74295 0.0857351 5.07604C0.1251 5.16304 0.189409 5.24071 0.273596 5.3027L1.40427 6.1134C1.48923 6.17389 1.58745 6.21123 1.68528 6.22169C1.73361 6.22729 1.77921 6.22953 1.82208 6.22953C2.13934 6.22953 2.32993 6.09473 2.43321 5.98121C2.68187 5.70936 2.64563 5.34191 2.63705 5.28179C2.61094 5.04056 2.76762 4.66714 3.05604 4.26609C3.20492 4.37811 3.38265 4.52113 3.48944 4.6298L3.53933 4.67274C3.84372 4.89082 4.20619 5.00658 4.58737 5.00658C5.14082 5.00658 5.6662 4.75527 5.99516 4.3348Z" transform="translate(13.3107 10.3466)" fill="black"/>
<path d="M2.09477 3.6147L2.15323 3.58296C2.22651 3.53404 2.33914 3.4743 2.44711 3.4209C2.57338 3.73606 2.62093 4.01053 2.57027 4.15989C2.54649 4.22338 2.43814 4.55647 2.63029 4.84512C2.71525 4.97283 2.88558 5.13079 3.21648 5.16029L3.26714 5.1629C3.3447 5.1629 3.42382 5.1461 3.49866 5.11361L4.53228 4.65654C4.62231 4.61771 4.69909 4.55647 4.75366 4.48178C4.94542 4.22076 4.93099 3.99372 4.885 3.84958C4.78055 3.52172 4.44614 3.38468 4.39002 3.36414C4.23061 3.30103 4.0408 3.08669 3.87282 2.78907C3.99481 2.74053 4.12966 2.69161 4.22476 2.66771L4.2879 2.64568C4.64881 2.48623 4.92359 2.20094 5.06156 1.84171C5.19992 1.48248 5.18433 1.09449 5.0183 0.748333L4.99374 0.70539C4.68545 0.237495 4.1776 9.11669e-08 3.4854 9.11669e-08C3.38368 9.11669e-08 3.27611 0.00522757 3.13268 0.0201644C2.26392 0.168785 1.4431 0.531003 0.75714 1.07059C0.0606533 1.62848 -0.159167 2.24201 0.113659 2.91491C0.357644 3.41978 0.890825 3.74577 1.47311 3.74577C1.68904 3.74577 1.89833 3.70171 2.09477 3.6147Z" transform="translate(7 9.37396)" fill="black"/>
<path d="M4.37211 0.926081C3.65653 0.43018 2.81466 0.116134 1.93421 0.0179246C1.81729 0.0059752 1.70738 3.64668e-07 1.60448 3.64668e-07C0.881493 3.64668e-07 0.378713 0.280439 0.10199 0.855132C-0.0422188 1.20988 -0.0332542 1.59824 0.127324 1.94888C0.288291 2.29914 0.580605 2.56838 0.95126 2.70617L1.01518 2.72447C1.10287 2.74127 1.22642 2.7775 1.3414 2.81484C1.19291 3.12067 1.01947 3.34397 0.87214 3.41306C0.807831 3.44106 0.482777 3.59715 0.399371 3.93061C0.362344 4.07737 0.362344 4.30441 0.569692 4.55273C0.628155 4.62368 0.707664 4.6797 0.801204 4.71517L1.86562 5.11212C1.93032 5.13564 1.99774 5.14796 2.06556 5.14796L2.14741 5.14199C2.47636 5.0927 2.63655 4.92503 2.71294 4.79284C2.88638 4.49336 2.75737 4.16774 2.73399 4.11509C2.67085 3.96198 2.69969 3.68341 2.80726 3.35966C2.92886 3.41007 3.05865 3.46907 3.14284 3.51761L3.20286 3.54599C3.37513 3.61059 3.55636 3.64308 3.7411 3.64308C4.35341 3.64308 4.91387 3.27713 5.13486 2.73231L5.15045 2.68563C5.3083 2.06538 5.05457 1.47949 4.37211 0.926081Z" transform="translate(18.279 15.2393)" fill="black"/>
</svg>
