<svg width="32" height="24" viewBox="0 0 32 24" fill="none" xmlns="http://www.w3.org/2000/svg">
<path d="M5.01416 5.59781C5.78082 5.92051 6.4957 6.22706 7.03588 6.21683L7.0536 6.21656L7.07104 6.22087C7.10842 6.22975 10.8769 7.09477 13.5224 4.34657C14.4685 3.36393 16.6312 1.91837 17.0861 1.61828C16.8693 0.821891 16.7209 0.66848 16.7145 0.662021L16.6877 0.630532C16.6434 0.557864 16.578 0.5183 16.483 0.50565C15.6436 0.393149 13.3782 2.29732 12.5747 3.04042L12.5038 2.96803C12.5005 3.04823 12.4764 3.11605 12.4515 3.16584C12.0583 3.94824 9.34749 4.47737 8.68078 4.34334C8.33469 4.27363 8.01656 4.11968 7.7084 3.97112C7.30888 3.77787 6.93067 3.59539 6.55218 3.62931L6.52671 3.36124C6.98161 3.3206 7.41436 3.52865 7.83161 3.73023C8.12371 3.87126 8.42578 4.01714 8.73698 4.07985C9.36327 4.20715 11.8928 3.66456 12.2029 3.04796C12.2425 2.96937 12.2624 2.85822 12.0661 2.69592C11.5151 2.24107 10.8886 2.1746 10.1632 2.09789C9.46377 2.02388 8.67081 1.9399 7.82331 1.47348C5.93697 0.435673 4.1744 -0.120373 3.22362 0.0220029C2.60482 0.114588 1.12078 0.92928 1.18293e-07 1.58652L1.40485 4.76939C2.617 4.5923 3.90833 5.13219 5.01416 5.59781ZM4.36129 3.32222C4.96266 3.28696 5.39984 3.32625 5.41812 3.32814C5.49426 3.33513 5.55018 3.40081 5.54298 3.47455C5.53634 3.54426 5.47598 3.59647 5.4051 3.59647C5.40067 3.59647 5.39652 3.59647 5.39209 3.59593C5.38766 3.59566 4.95685 3.55718 4.37763 3.59082C4.29346 3.59486 4.23559 3.53861 4.23116 3.46459C4.22673 3.39031 4.28488 3.32679 4.36129 3.32222Z" transform="translate(6.30096 14.6432)" fill="black"/>
<path d="M1.90571 2.99178L0.584754 7.22792e-07C0.320064 0.160678 0.112687 0.289327 1.90113e-08 0.359573L1.26254 3.39737C1.47075 3.22566 1.68588 3.09378 1.90571 2.99178Z" transform="translate(5 16.6563)" fill="black"/>
<path d="M-1.85888e-07 0.405596L1.32068 3.39737C1.58565 3.23697 1.79303 3.10832 1.90571 3.03807L0.642897 1.06776e-07C0.435243 0.171712 0.219836 0.303323 -1.85888e-07 0.405596Z" transform="translate(25.0943 3.94611)" fill="black"/>
<path d="M5.01997 3.66093C5.57067 4.11578 6.19723 4.18225 6.92264 4.25896C7.62202 4.33297 8.41498 4.41694 9.26276 4.88337C11.1488 5.92145 12.9095 6.47803 13.8622 6.33485C14.481 6.24226 15.965 5.42757 17.0861 4.77006L15.6812 1.58746C14.4691 1.76482 13.178 1.22493 12.0719 0.759044C11.3053 0.436343 10.581 0.128714 10.0502 0.140018L10.0325 0.140287L10.015 0.135981C9.9771 0.12683 6.20859 -0.737652 3.56335 2.01028C2.61727 2.99292 0.454624 4.43848 7.18205e-08 4.73857C0.216514 5.53469 0.364918 5.6881 0.371563 5.69456L0.398419 5.72605C0.442719 5.79872 0.508061 5.83828 0.603028 5.8512C1.43807 5.95832 3.70732 4.05926 4.51108 3.31643L4.58196 3.38882C4.58528 3.30862 4.60937 3.24053 4.63429 3.19101C5.02773 2.40807 7.74135 1.87975 8.40529 2.01351C8.75138 2.08322 9.06923 2.23717 9.37711 2.38573C9.77719 2.57898 10.156 2.76119 10.5336 2.72754L10.5591 2.99561C10.1014 3.03625 9.67087 2.8282 9.25418 2.62689C8.96208 2.48585 8.66001 2.33998 8.34909 2.27727C8.28734 2.26489 8.20705 2.25897 8.11236 2.25897C7.24658 2.25897 5.16284 2.75338 4.8832 3.30943C4.84333 3.38748 4.82312 3.49837 5.01997 3.66093Z" transform="translate(8.61322 3)" fill="black"/>
<path d="M0.151793 0.000775075C0.156223 0.00131336 0.587591 0.0392624 1.16653 0.00615803C1.24239 0.0040049 1.30829 0.0583714 1.31272 0.132385C1.31743 0.206668 1.25928 0.270455 1.18259 0.274762C0.998192 0.285527 0.8293 0.289295 0.683111 0.289295C0.352249 0.289295 0.138226 0.270186 0.12549 0.26884C0.0496272 0.261842 -0.00657692 0.196172 0.00062176 0.122427C0.00782044 0.0486827 0.076761 -0.00729917 0.151793 0.000775075Z" transform="translate(20.1548 5.75986)" fill="black"/>
<path d="M5.17336 1.97125e-07C0.476497 0.370339 2.53484e-08 4.96701 2.53484e-08 4.96701C5.23704 5.83068 5.17336 1.97125e-07 5.17336 1.97125e-07Z" transform="translate(15.9437 10.4857)" fill="black"/>
<path d="M2.11237e-07 -2.21766e-07C3.45066 0.272102 3.86597 3.64902 3.86597 3.64902C0.0191037 4.28366 2.11237e-07 -2.21766e-07 2.11237e-07 -2.21766e-07Z" transform="translate(11.7134 11.8266)" fill="black"/>
<path d="M0.891925 3.20328e-07C3.13431 2.56411 1.63699 5.23749 1.63699 5.23749C-1.54483 3.04184 0.891925 3.20328e-07 0.891925 3.20328e-07Z" transform="translate(14.2123 8.67438)" fill="black"/>
</svg>
