<svg width="32" height="24" viewBox="0 0 32 24" fill="none" xmlns="http://www.w3.org/2000/svg">
<g clip-path="url(#clip0)">
<path d="M3.8568 4.16875e-05C3.61654 0.0117084 3.40816 0.249014 3.41942 0.498205C3.43069 0.747372 3.65956 0.963449 3.89982 0.951711H4.59519V7.37543L3.36216 10.2527L8.91797 10.2899L7.80681 7.40516V0.951711H8.48784C8.73023 0.955282 8.95318 0.727274 8.95318 0.475869C8.95318 0.224464 8.73023 -0.00348212 8.48784 4.16875e-05C6.94543 4.16875e-05 5.39603 4.16875e-05 3.8568 4.16875e-05ZM8.90363 3.34573C8.66337 3.35739 8.45498 3.59469 8.46624 3.84388C8.47751 4.09304 8.70639 4.30911 8.94664 4.2974H9.63485V5.72488H12.8465V4.2974H13.5347C13.7771 4.30097 14 4.07297 14 3.82157C14 3.57017 13.7771 3.34218 13.5347 3.34573C11.9923 3.34573 10.4429 3.34573 8.90363 3.34573ZM9.63485 6.67655V18.1039C9.63485 19.3009 10.3231 20.0147 11.2478 19.9998C12.1583 20.0148 12.8465 19.3009 12.8465 18.1113V6.67655H11.4629C11.4373 6.85645 11.3216 6.87444 11.2335 6.9292C11.1068 6.9292 11.0041 6.82268 11.0041 6.6913C10.5848 6.65944 10.0813 6.67655 9.63485 6.67655ZM11.9217 7.88099C12.0484 7.88099 12.1511 7.98749 12.1511 8.1189C12.1511 8.2503 12.0484 8.35683 11.9217 8.35683C11.795 8.35683 11.6923 8.2503 11.6923 8.1189C11.6923 7.98749 11.795 7.88099 11.9217 7.88099ZM11.2335 9.07057C11.3602 9.07057 11.4629 9.17707 11.4629 9.30847C11.4629 9.43989 11.3602 9.54641 11.2335 9.54641C11.1068 9.54641 11.0041 9.43989 11.0041 9.30847C11.0041 9.17707 11.1068 9.07057 11.2335 9.07057ZM11.9217 10.498C12.0484 10.498 12.1511 10.6046 12.1511 10.736C12.1511 10.8674 12.0484 10.9739 11.9217 10.9739C11.795 10.9739 11.6923 10.8674 11.6923 10.736C11.6923 10.6046 11.795 10.498 11.9217 10.498ZM2.95354 11.1969L3.41947e-09 18.089C-4.58982e-05 18.8101 0.462025 19.5209 1.8137 19.5611C4.31695 19.5249 7.14251 19.5202 9.54165 19.5387C9.30026 19.1457 9.17604 18.6561 9.17604 18.1038V11.2415L5.67051 11.1968C5.70968 11.2669 5.73503 11.3479 5.73503 11.4347C5.73503 11.6975 5.52961 11.9105 5.27623 11.9105C5.02283 11.9105 4.81742 11.6975 4.81742 11.4347C4.81742 11.3479 4.84277 11.2669 4.88194 11.1968L2.95354 11.1969ZM7.34084 11.4348C7.59422 11.4348 7.79964 11.6479 7.79964 11.9106C7.79964 12.1735 7.59422 12.3865 7.34084 12.3865C7.08744 12.3865 6.88203 12.1735 6.88203 11.9106C6.88203 11.6479 7.08744 11.4348 7.34084 11.4348ZM4.12922 12.3865C4.25591 12.3865 4.35862 12.493 4.35862 12.6244C4.35862 12.7558 4.25591 12.8623 4.12922 12.8623C4.00253 12.8623 3.89982 12.7558 3.89982 12.6244C3.89982 12.493 4.00253 12.3865 4.12922 12.3865ZM6.65263 12.8623C6.77933 12.8623 6.88203 12.9688 6.88203 13.1002C6.88203 13.2316 6.77933 13.3381 6.65263 13.3381C6.52594 13.3381 6.42323 13.2316 6.42323 13.1002C6.42323 12.9688 6.52594 12.8623 6.65263 12.8623ZM8.25844 13.814C8.38513 13.814 8.48784 13.9205 8.48784 14.0519C8.48784 14.1833 8.38513 14.2898 8.25844 14.2898C8.13175 14.2898 8.02904 14.1833 8.02904 14.0519C8.02904 13.9205 8.13175 13.814 8.25844 13.814ZM4.58802 14.0519C4.71472 14.0519 4.81742 14.1584 4.81742 14.2898C4.81742 14.4212 4.71472 14.5277 4.58802 14.5277C4.46133 14.5277 4.35862 14.4212 4.35862 14.2898C4.35862 14.1584 4.46133 14.0519 4.58802 14.0519ZM6.42323 15.2415C6.54993 15.2415 6.65263 15.348 6.65263 15.4794C6.65263 15.6108 6.54993 15.7173 6.42323 15.7173C6.29654 15.7173 6.19383 15.6108 6.19383 15.4794C6.19383 15.348 6.29654 15.2415 6.42323 15.2415ZM3.44102 16.1931C3.56771 16.1931 3.67042 16.2996 3.67042 16.431C3.67042 16.5624 3.56771 16.669 3.44102 16.669C3.31432 16.669 3.21162 16.5624 3.21162 16.431C3.21162 16.2996 3.31432 16.1931 3.44102 16.1931ZM8.02904 16.431C8.15573 16.431 8.25844 16.5376 8.25844 16.669C8.25844 16.8004 8.15573 16.9069 8.02904 16.9069C7.90234 16.9069 7.79964 16.8004 7.79964 16.669C7.79964 16.5376 7.90234 16.431 8.02904 16.431Z" transform="translate(9 2)" fill="black"/>
<path d="M12 -1.16948e-07C5.39343 -1.16948e-07 0.0101391 5.38064 1.24875e-05 11.9945C-0.0046168 15.2595 1.28377 18.425 3.53563 20.6795C5.67466 22.8209 8.51617 24 11.5374 24C11.6985 24 11.8608 23.9968 12.024 23.9902C18.7394 23.7148 24 18.4461 24 11.9954C24 5.38093 18.617 -1.16948e-07 12 -1.16948e-07ZM12 1.15688C14.6349 1.15688 17.0529 2.10234 18.9338 3.67048L3.64182 19.0711C2.04905 17.1146 1.15357 14.5914 1.15734 11.9962C1.16659 6.01952 6.03053 1.15688 12 1.15688ZM11.9763 22.8342C9.12001 22.9527 6.43878 21.9092 4.42272 19.9269L19.7816 4.45889C21.6741 6.41084 22.8427 9.06847 22.8427 11.9954C22.8427 17.8234 18.0696 22.5843 11.9763 22.8342Z" transform="translate(4)" fill="black"/>
</g>
<defs>
<clipPath id="clip0">
<rect width="32" height="24" fill="white"/>
</clipPath>
</defs>
</svg>
