<svg width="91" height="89" viewBox="0 0 91 89" fill="none" xmlns="http://www.w3.org/2000/svg">
<path d="M19.528 21.4C17.828 23.5 14.828 24.6 10.628 24.6C6.428 24.6 3.528 23.5 1.728 21.4C-0.672 18.4 0.128002 14.3 0.128002 14.3L2.428 3.05176e-06C2.928 3.05176e-06 3.528 0.100002 4.128 0.100002C6.928 0.200002 9.028 0.299998 10.028 0.299998C10.328 0.299998 10.528 0.299998 10.528 0.299998C10.528 0.299998 10.728 0.299998 11.028 0.299998C12.128 0.299998 15.128 0.300003 18.628 3.05176e-06L20.928 14.2V14.3C21.128 14.4 21.928 18.4 19.528 21.4Z" transform="translate(54.6727 62)" fill="#818181"/>
<path d="M30.7305 37.6C30.8305 37.6 30.8305 37.6 30.7305 37.6C27.7305 40 23.4305 41.1 17.8305 41.1C14.3305 41.1 11.3305 40.6 8.83054 39.7C6.33054 38.8 4.33054 37.4 2.93054 35.7C-1.16946 30.7 0.230539 23.7 0.230539 23.7L4.23054 0C8.63054 0.3 12.5305 0.400002 14.9305 0.400002C13.6305 3.6 13.3305 6.6 14.0305 8.7C14.7305 10.7 17.1305 12.1 21.2305 13.2C23.8305 13.9 27.1305 14.4 31.0305 14.7L28.7305 28.7C28.6305 29.1 27.8305 33.9 30.7305 37.6Z" transform="translate(23.9701 47.2)" fill="#818181"/>
<path d="M25.4888 27.1C25.4888 27.1 22.7888 27.1 19.1888 27C18.2888 27 17.3888 26.9 16.5888 26.8C2.68884 25.8 0.588839 23 0.288839 22.2C-0.411161 20.4 0.188839 17.2 1.78884 14.1C5.18884 7.3 13.1888 -7.62939e-07 25.4888 -7.62939e-07C34.0888 -7.62939e-07 39.8888 3.5 43.1888 6.4C49.6888 12.1 51.7888 19.4 50.6888 22.3C50.3888 23.1 48.2888 25.9 34.3888 26.9C29.6888 27.1 25.5888 27.1 25.4888 27.1Z" transform="translate(39.8118 33)" fill="#818181"/>
<path d="M83.4007 36.7C79.7007 33.8 73.7007 30.7 65.3007 30.7C52.3007 30.7 43.7006 38.2 39.9007 45.4C37.6007 45.4 32.8007 45.3 27.3006 44.9C11.6006 43.8 1.80065 40.9 0.40065 37C-0.79935 33.4 0.60065 25.8 5.90065 18.2C9.70065 12.7 20.8006 1.90735e-07 41.9007 1.90735e-07C63.0006 1.90735e-07 74.1006 12.7 77.9007 18.2C83.1006 25.6 84.6006 33 83.4007 36.7Z" fill="#818181"/>
</svg>
