<svg width="96" height="88" viewBox="0 0 96 88" fill="none" xmlns="http://www.w3.org/2000/svg">
<rect width="96" height="88" fill="white"/>
<path d="M25.7395 17.6098C24.1207 13.8404 20.8082 11.0631 16.8059 10.0849L14.4902 4.69282L11.0402 6.14233L8.40215 -1.01702e-07L0.812001 3.18897L3.45001 9.33144L1.78822e-07 10.781L2.31573 16.173C0.249181 19.7015 -0.0297377 23.9874 1.58928 27.757L18.4435 67L42.5941 56.8528L25.7395 17.6098ZM7.21132 2.91729L8.96995 7.01213L7.24487 7.73703L5.51979 8.46179L3.76116 4.36681L7.21132 2.91729ZM3.65921 26.8873C2.29713 23.7162 2.55656 20.1036 4.34185 17.154L8.43819 15.4668L7.5736 13.4131L4.175 14.8128L2.94931 11.9587L8.1244 9.78424L11.9196 8.18968L13.2996 7.60982L15.1944 12.0215L15.7773 12.1363C19.3125 12.8328 22.263 15.2041 23.6698 18.4793L39.6446 55.6751L19.6342 64.0829L3.65921 26.8873Z" transform="translate(43.4059 10)" fill="#27AE60"/>
<path d="M2.24908 0H0V2.22455H2.24908V0Z" transform="translate(16.0923 14.2181)" fill="#27AE60"/>
<path d="M2.24908 0H0V2.22455H2.24908V0Z" transform="translate(25.0891 14.2181)" fill="#27AE60"/>
<path d="M2.24908 0H0V2.22455H2.24908V0Z" transform="translate(11.5942 14.2181)" fill="#27AE60"/>
<path d="M2.24908 0H0V2.22455H2.24908V0Z" transform="translate(38.5836 14.2181)" fill="#27AE60"/>
<path d="M2.24908 0H0V2.22455H2.24908V0Z" transform="translate(20.5905 14.2181)" fill="#27AE60"/>
<path d="M2.24908 0H0V2.22455H2.24908V0Z" transform="translate(34.0854 14.2181)" fill="#27AE60"/>
<path d="M2.24908 0H0V2.22455H2.24908V0Z" transform="translate(29.5872 14.2181)" fill="#27AE60"/>
<path d="M2.2382 0H0V2.2355H2.2382V0Z" transform="matrix(0.748721 -0.662933 0.671053 0.741452 24.4027 37.1982)" fill="#27AE60"/>
<path d="M2.2382 0H0V2.2355H2.2382V0Z" transform="matrix(0.748721 -0.662933 0.671053 0.741452 37.8077 25.3267)" fill="#27AE60"/>
<path d="M2.2382 0H0V2.2355H2.2382V0Z" transform="matrix(0.748721 -0.662933 0.671053 0.741452 31.106 31.2625)" fill="#27AE60"/>
<path d="M2.2382 0H0V2.2355H2.2382V0Z" transform="matrix(0.748721 -0.662933 0.671053 0.741452 27.7542 34.2312)" fill="#27AE60"/>
<path d="M2.2382 0H0V2.2355H2.2382V0Z" transform="matrix(0.748721 -0.662933 0.671053 0.741452 34.4561 28.2953)" fill="#27AE60"/>
<path d="M2.2382 0H0V2.2355H2.2382V0Z" transform="matrix(0.748721 -0.662933 0.671053 0.741452 21.0525 40.1678)" fill="#27AE60"/>
<path d="M2.23806 0H0V2.2355H2.23806V0Z" transform="matrix(0.748721 -0.662933 0.671053 0.741452 17.7016 43.134)" fill="#27AE60"/>
<path d="M2.23806 0H0V2.2355H2.23806V0Z" transform="matrix(0.748721 -0.662933 0.671053 0.741452 11 49.0701)" fill="#27AE60"/>
<path d="M2.23806 0H0V2.2355H2.23806V0Z" transform="matrix(0.748721 -0.662933 0.671053 0.741452 14.3501 46.1027)" fill="#27AE60"/>
<path d="M2.24652 0H0V2.22713H2.24652V0Z" transform="matrix(0.947276 -0.320435 0.326789 0.945103 16.4586 26.6458)" fill="#27AE60"/>
<path d="M2.24652 0H0V2.22713H2.24652V0Z" transform="matrix(0.947276 -0.320435 0.326789 0.945103 12.2034 28.0852)" fill="#27AE60"/>
<path d="M2.24652 0H0V2.22713H2.24652V0Z" transform="matrix(0.947276 -0.320435 0.326789 0.945103 20.716 25.2063)" fill="#27AE60"/>
<path d="M2.24652 0H0V2.22713H2.24652V0Z" transform="matrix(0.947276 -0.320435 0.326789 0.945103 24.972 23.7665)" fill="#27AE60"/>
<path d="M2.24652 0H0V2.22713H2.24652V0Z" transform="matrix(0.947276 -0.320435 0.326789 0.945103 29.2295 22.3267)" fill="#27AE60"/>
<path d="M2.24652 0H0V2.22713H2.24652V0Z" transform="matrix(0.947276 -0.320435 0.326789 0.945103 37.7424 19.4468)" fill="#27AE60"/>
<path d="M2.24653 0H0V2.22713H2.24653V0Z" transform="matrix(0.947276 -0.320435 0.326789 0.945103 33.4849 20.8868)" fill="#27AE60"/>
<path d="M2.20408 0H0V2.22819H2.20408V0Z" transform="matrix(0.924683 -0.380819 0.388003 0.921691 53.0589 22.5573)" fill="#27AE60"/>
<path d="M2.24535 0H0V2.22832H2.24535V0Z" transform="matrix(0.92193 -0.387379 0.394643 0.918844 58.0509 43.3175)" fill="#27AE60"/>
<path d="M2.24535 0H0V2.22832H2.24535V0Z" transform="matrix(0.92193 -0.387379 0.394643 0.918844 65.7802 40.0699)" fill="#27AE60"/>
<path d="M2.24535 0H0V2.22832H2.24535V0Z" transform="matrix(0.92193 -0.387379 0.394643 0.918844 54.1872 44.9407)" fill="#27AE60"/>
<path d="M2.24535 0H0V2.22817H2.24535V0Z" transform="matrix(0.921929 -0.387279 0.394542 0.918845 61.911 41.6904)" fill="#27AE60"/>
<path d="M2.24535 0H0V2.22832H2.24535V0Z" transform="matrix(0.92193 -0.387379 0.394643 0.918844 63.715 45.7721)" fill="#27AE60"/>
<path d="M2.24535 0H0V2.22832H2.24535V0Z" transform="matrix(0.92193 -0.387379 0.394643 0.918844 55.9864 49.0232)" fill="#27AE60"/>
<path d="M2.24535 0H0V2.22832H2.24535V0Z" transform="matrix(0.92193 -0.387379 0.394643 0.918844 67.5785 44.1523)" fill="#27AE60"/>
<path d="M2.24535 0H0V2.22832H2.24535V0Z" transform="matrix(0.92193 -0.387379 0.394643 0.918844 59.8508 47.3998)" fill="#27AE60"/>
<path d="M2.24535 0H2.0709e-06V2.22832H2.24535V0Z" transform="matrix(0.92193 -0.387379 0.394643 0.918844 69.228 48.2939)" fill="#27AE60"/>
<path d="M2.24535 0H0V2.22832H2.24535V0Z" transform="matrix(0.92193 -0.387379 0.394643 0.918844 61.5008 51.5381)" fill="#27AE60"/>
<path d="M2.24535 0H0V2.22832H2.24535V0Z" transform="matrix(0.92193 -0.387379 0.394643 0.918844 57.636 53.1614)" fill="#27AE60"/>
<path d="M2.24535 0H0V2.22832H2.24535V0Z" transform="matrix(0.921929 -0.387279 0.394542 0.918845 65.3626 49.9181)" fill="#27AE60"/>
</svg>
