<svg width="144" height="136" viewBox="0 0 144 136" fill="none" xmlns="http://www.w3.org/2000/svg">
<path d="M5.08962 10.2131C7.90054 10.2131 10.1792 7.92679 10.1792 5.10653C10.1792 2.28627 7.90054 3.59204e-06 5.08962 3.59204e-06C2.2787 3.59204e-06 0 2.28627 0 5.10653C0 7.92679 2.2787 10.2131 5.08962 10.2131Z" transform="translate(66.9105 103.636)" fill="#F2C94C"/>
<path d="M-1.72122e-07 4.54065V43.7179C-1.72122e-07 46.2237 2.02366 48.2563 4.52561 48.2563C7.02755 48.2563 9.05122 46.2259 9.05122 43.7179V4.54065C9.05122 2.03492 7.02755 1.17432e-06 4.52561 1.17432e-06C2.02366 1.17432e-06 -1.72122e-07 2.03265 -1.72122e-07 4.54065Z" transform="translate(67.4745 47.3193)" fill="#F2C94C"/>
<path d="M143.471 129.323L75.9933 2.22053C74.4208 -0.740176 69.5771 -0.740176 68.0069 2.22053L0.531098 129.323C-0.21565 130.73 -0.172786 132.428 0.646156 133.793C1.46284 135.162 2.93603 136 4.52654 136H139.474C141.064 136 142.535 135.165 143.356 133.793C144.171 132.428 144.216 130.73 143.471 129.323ZM12.064 126.919L72.0001 14.0113L131.939 126.919H12.064Z" fill="#F2C94C"/>
</svg>
